<?xml version="1.0" encoding="UTF-8"?>
<svg width="82px" height="82px" viewBox="0 0 82 82" version="1.1" xmlns="http://www.w3.org/2000/svg" xmlns:xlink="http://www.w3.org/1999/xlink">
    <!-- Generator: Sketch 59.1 (86144) - https://sketch.com -->
    <title>tabler:brand-javascript</title>
    <desc>Created with Sketch.</desc>
    <g id="symbols" stroke="none" stroke-width="1" fill="none" fill-rule="evenodd">
        <g id="tabler:brand-javascript" transform="translate(4.000000, 4.000000)">
            <path d="M42.0177778,60.6463186 C45.0607684,63.296921 48.843946,64.6222222 53.3673105,64.6222222 C56.8215161,64.5419009 59.4532918,63.6729707 61.2626376,62.0117805 C63.1018899,60.3250335 64.0177778,58.3170013 64.0177778,55.9876841 C64.0177778,53.7131313 63.3747871,51.836534 62.0850675,50.3651941 C60.7990862,48.8938542 58.6308619,47.7145917 55.5878712,46.8310576 C53.0682451,46.0826092 51.2888058,45.3998783 50.2420768,44.7828648 C49.2028245,44.1402945 48.67946,43.3626384 48.67946,42.4535475 C48.67946,41.6247779 49.1056282,40.9566508 49.9542264,40.4455154 C50.8065628,39.9343799 51.9430114,39.6824632 53.3673105,39.6824632 C54.4140395,39.6824632 55.5878712,39.8832664 56.9037591,40.2848728 C58.2196469,40.6317147 59.3860021,41.1976147 60.3990862,41.9716198 L63.2775909,37.5941098 C60.7579647,35.6116344 57.4121703,34.6222222 53.243946,34.6222222 C50.2570301,34.6222222 47.8046937,35.3706706 45.8831983,36.8712182 C43.9093666,38.3681149 42.9224507,40.2301083 42.9224507,42.4535475 C42.9523572,44.8084216 43.7448806,46.6448582 45.3074974,47.9555556 C46.9000208,49.2699039 49.1579647,50.3396373 52.0925441,51.168407 C54.5336656,51.9168553 56.1934787,52.6653036 57.0682451,53.4174029 C57.8862282,54.0984752 58.3530692,55.0985857 58.3430114,56.1483266 C58.3846643,57.1143683 57.9015578,58.0302505 57.0719834,58.5579652 C56.1934787,59.145771 54.9299273,59.4414993 53.2850675,59.4414993 C50.6009553,59.4670561 47.9131049,58.4228794 45.2252544,56.3089692 L42.0177778,60.6463186 Z" id="Path" fill="#7CC273" fill-rule="nonzero"></path>
            <path d="M22.8097098,56.3773243 L19.0177778,59.5201814 C20.1472895,61.4496805 21.5481773,62.8003298 23.2131069,63.5609977 C24.7716863,64.266007 26.5613022,64.6222222 28.5782873,64.6222222 C29.678461,64.6222222 30.8226417,64.4441146 32.0071621,64.09161 C33.2077733,63.7290515 34.3205806,63.1174215 35.274678,62.2956916 C37.0239542,60.8819625 37.9370984,58.5665636 38.0177778,55.3569161 L38.0177778,34.6222222 L32.5719179,34.6222222 L32.5719179,54.2956916 C32.5719179,56.1732426 32.1538519,57.4942074 31.3250544,58.2548753 C30.4889223,58.9895692 29.4400901,59.3569161 28.1748903,59.3569161 C26.9646992,59.3569161 25.9305359,59.0860441 25.0687332,58.5405896 C24.1830163,57.9760962 23.4154851,57.2410999 22.8097098,56.3773243 Z" id="Path" fill="#7CC273" fill-rule="nonzero"></path>
            <path d="M74,65.7777778 L74,8.22222222 C74,3.68121428 70.3187857,2.84217094e-14 65.7777778,2.84217094e-14 L8.22222222,2.84217094e-14 C3.68121428,2.84217094e-14 0,3.68121428 0,8.22222222 L0,65.7777778 C0,70.3187857 3.68121428,74 8.22222222,74 L65.7777778,74 C70.3187857,74 74,70.3187857 74,65.7777778 Z" id="Path" stroke="#7CC273" stroke-width="7" stroke-linecap="round" stroke-linejoin="round"></path>
        </g>
    </g>
</svg>