<?xml version="1.0" encoding="UTF-8"?>
<svg width="82px" height="82px" viewBox="0 0 82 82" version="1.1" xmlns="http://www.w3.org/2000/svg" xmlns:xlink="http://www.w3.org/1999/xlink">
    <!-- Generator: Sketch 59.1 (86144) - https://sketch.com -->
    <title>devicon-plain:python-wordmark</title>
    <desc>Created with Sketch.</desc>
    <g id="symbols" stroke="none" stroke-width="1" fill="none" fill-rule="evenodd">
        <g id="devicon-plain:python-wordmark" transform="translate(4.000000, 4.000000)">
            <rect id="ViewBox" x="0" y="1" width="74" height="74"></rect>
            <path d="M22.5253939,50.9524966 L22.5253939,45.1478139 C22.5253939,41.131934 26.1459899,37.7063707 30.3180018,37.7063707 L42.6052029,37.7063707 C46.0254957,37.7063707 48.1455649,34.8037413 48.1455649,31.4069739 L48.1455649,19.821221 C48.1455649,16.5235116 45.6382818,14.047062 42.2995077,13.4970598 C40.2326101,13.1545927 38.1397729,12.9885007 36.04411,13.000618 C33.9415092,13.0104086 31.770782,13.1872156 30.0035725,13.4970598 C24.7974373,14.4058592 23.6899472,16.3098458 23.6899472,19.821221 L23.6899472,24.4602447 L35.917756,24.4602447 L35.917756,26.1880003 L19.5505427,26.1880003 C15.9753643,26.1880003 12.8450453,28.2209927 11.865656,32.2650925 C10.7366217,36.8995088 10.6865459,39.8683688 11.865656,44.7078121 C12.7402355,48.3096065 14.8288617,50.9524966 18.4034578,50.9524966 L22.5253939,50.9524966 Z M29.5441562,21.3664104 C28.2689704,21.3664104 27.2360117,20.3326367 27.2360117,19.0552494 C27.2360117,17.771527 28.2683882,16.7291145 29.5441562,16.7291145 C30.8146838,16.7291145 31.8523007,17.7721029 31.8523007,19.0552494 C31.8523007,20.3326367 30.8146838,21.3664104 29.5441562,21.3664104 Z M61.0575487,32.2650925 C60.1742351,28.7439267 58.4862152,26.1880003 54.9069609,26.1880003 L49.8923947,26.1880003 L49.8923947,31.4069739 C49.8923947,35.5956293 46.6991898,39.4341262 42.6052029,39.4341262 L30.3180018,39.4341262 C26.952443,39.4341262 23.6899472,41.9698955 23.6899472,45.3044637 L23.6899472,56.8902166 C23.6899472,60.1873501 26.8272536,62.1270437 30.0798507,63.072126 C33.9729521,64.2049577 37.5219281,64.4094088 42.1807233,63.072126 C45.2772703,62.1852114 48.1455649,60.4010159 48.1455649,56.8902166 L48.1455649,52.6802522 L35.917756,52.6802522 L35.917756,50.9524966 L54.9063786,50.9524966 C58.481557,50.9524966 59.8138059,48.4092405 61.0569665,44.7078121 C62.3414687,40.8963834 62.2867347,37.1546407 61.0575487,32.2650925 L61.0575487,32.2650925 Z M43.3790485,55.3438754 C44.6542343,55.3438754 45.6877753,56.3776491 45.6877753,57.6561882 C45.6877753,58.9387588 44.6548166,59.9811713 43.3790485,59.9811713 C42.108521,59.9811713 41.0714863,58.9381828 41.0714863,57.6561882 C41.0714863,56.3776491 42.108521,55.3438754 43.3790485,55.3438754 Z" id="Shape" fill="#7CC273" fill-rule="nonzero"></path>
            <path d="M74,65.7777778 L74,8.22222222 C74,3.68121428 70.3187857,0 65.7777778,0 L8.22222222,0 C3.68121428,0 2.84217094e-14,3.68121428 2.84217094e-14,8.22222222 L2.84217094e-14,65.7777778 C2.84217094e-14,70.3187857 3.68121428,74 8.22222222,74 L65.7777778,74 C70.3187857,74 74,70.3187857 74,65.7777778 Z" id="Path" stroke="#7CC273" stroke-width="7" stroke-linecap="round" stroke-linejoin="round"></path>
        </g>
    </g>
</svg>