<?xml version="1.0" encoding="UTF-8"?>
<svg width="82px" height="82px" viewBox="0 0 82 82" version="1.1" xmlns="http://www.w3.org/2000/svg" xmlns:xlink="http://www.w3.org/1999/xlink">
    <!-- Generator: Sketch 59.1 (86144) - https://sketch.com -->
    <title>devicon-plain:ruby-wordmark</title>
    <desc>Created with Sketch.</desc>
    <g id="symbols" stroke="none" stroke-width="1" fill="none" fill-rule="evenodd">
        <g id="devicon-plain:ruby-wordmark" transform="translate(1.000000, 1.000000)">
            <rect id="ViewBox" x="0" y="0" width="80" height="80"></rect>
            <path d="M48.5325045,44 C42.3712169,48.029644 36.2662011,52.0229892 30,56.1203908 L58,60 L48.5325045,44 Z M60.8826001,26 L50.2306348,43.5176854 C50.0776451,43.7703347 49.8793593,43.9704328 50.0947466,44.358502 C52.7496494,49.1502469 55.3828285,53.9571507 58.0224785,58.7584962 C58.4389248,59.5169492 58.8604553,60.2723703 59.3993858,61 L61,26.0378974 L60.8826001,26 Z M23.717441,40.8451087 C23.842642,40.9720383 24.1549463,41.0452094 24.2996954,40.9690517 C26.8637556,39.6211094 29.4441059,38.3035306 31.9523145,36.8445871 C32.7696116,36.3697212 33.3979436,35.5170531 34.1030718,34.826158 C36.4357201,32.5370571 38.7661351,30.2453549 41.0943133,27.9510549 C41.2372006,27.810188 41.4052213,27.6742987 41.4908606,27.4965973 C42.3272404,25.7479557 43.1487264,23.99135 44,22.1829768 C42.9848946,21.7763044 42.0228484,21.3766007 41.0491665,21.0132337 C40.916984,20.9639552 40.7094017,21.0620145 40.5651181,21.1476297 C38.3110349,22.4945765 36.0145976,23.7693476 33.8317255,25.2382464 C32.7393586,25.9729446 31.8494542,27.0555792 30.8822882,27.9993379 C29.3244901,29.5205018 27.7676229,31.04515 26.2317001,32.593193 C25.8219179,33.0083728 25.4544965,33.4688942 25.1356097,33.967019 C24.0846662,35.6026684 23.0663028,37.2617126 22,38.968542 C22.5966827,39.6285758 23.1379792,40.2587438 23.717441,40.8451087 L23.717441,40.8451087 Z M32.0436236,38 C30.705843,43.626651 29.374412,49.2212248 28,55 L47,42.8179141 L32.0436236,38 Z M43,28.6929148 L48.4296343,42 C51.9738983,36.6361115 55.4475093,31.3780283 59,26 L43,28.6929148 Z M33,37.3149991 L48,42 C46.1202519,37.5938968 44.304978,33.3421491 42.4517193,29 L33,37.3149991 Z M22.7256186,44 L18,56 L27,55.7175515 L22.7256186,44 Z M27.7119626,54 L27.8201246,53.9733008 C28.8672897,49.0349397 29.9301558,44.1306942 31,39 L24,43.1240359 C25.1928349,46.640418 26.4654829,50.3486387 27.7119626,54 L27.7119626,54 Z M57,26.424966 C55.4947503,25.9625422 53.990914,25.4979319 52.4842509,25.0387877 C50.3203661,24.3790411 48.1545969,23.7264004 45.9916543,23.0600946 C45.7216987,22.9770114 45.5257101,22.922898 45.3669404,23.3005988 C44.6027729,25.1174981 43.8141069,26.9212791 43.0376901,28.7310727 C43.0136627,28.7873725 43.0183739,28.8606169 43,29 L56.9971732,26.5392055 L57,26.424966 Z M49,22.4743025 L61,26 L59.0172831,20 L49.0179744,22.3548703 L49,22.4743025 Z M53,60.8291253 L42.4281022,59.1514462 C38.0367138,58.4547145 33.6532439,57.687792 29.2519572,57.0980728 C27.6558535,56.8846232 26.0171871,57.0813881 24.3988122,57.1130315 C23.0689733,57.139497 21.7391343,57.1981812 20.4097903,57.2470848 C20.2726986,57.2516874 20.1361019,57.2839062 20,57.454781 C30.9920813,58.6365206 41.9851525,59.817685 52.976739,61 L53,60.8291253 Z M18.3127208,52.6775411 C19.8437163,49.3523091 21.3661588,46.0245734 22.9025,42.7023456 C23.0564549,42.3683704 23.045229,42.142549 22.7442686,41.8746678 C22.1011864,41.3013519 21.5046113,40.6839733 20.8016577,40 L18,52.9539344 L18.1031711,53 C18.1742683,52.8928475 18.2603334,52.792705 18.3127208,52.6775411 Z M45.5945714,20.9101732 C47.8971998,20.2849891 50.2332204,19.7972853 52.5554071,19.2518799 C52.7051949,19.2162555 52.8521204,19.1640732 53,19.1194172 L52.9775795,19 L43,20.4114308 C43.9373658,20.8424365 44.6591137,21.1640601 45.5945714,20.9101732 L45.5945714,20.9101732 Z" id="Shape" fill="#7CC273" fill-rule="nonzero"></path>
            <path d="M77,68.7777778 L77,11.2222222 C77,6.68121428 73.3187857,3 68.7777778,3 L11.2222222,3 C6.68121428,3 3,6.68121428 3,11.2222222 L3,68.7777778 C3,73.3187857 6.68121428,77 11.2222222,77 L68.7777778,77 C73.3187857,77 77,73.3187857 77,68.7777778 Z" id="Path" stroke="#7CC273" stroke-width="7" stroke-linecap="round" stroke-linejoin="round"></path>
        </g>
    </g>
</svg>