<?xml version="1.0" encoding="UTF-8"?>
<svg width="82px" height="82px" viewBox="0 0 82 82" version="1.1" xmlns="http://www.w3.org/2000/svg" xmlns:xlink="http://www.w3.org/1999/xlink">
    <!-- Generator: Sketch 59.1 (86144) - https://sketch.com -->
    <title>Group</title>
    <desc>Created with Sketch.</desc>
    <g id="symbols" stroke="none" stroke-width="1" fill="none" fill-rule="evenodd" stroke-linecap="round" stroke-linejoin="round">
        <g id="tabler:brand-typescript" transform="translate(-10.000000, -10.000000)" stroke="#7CC273">
            <g id="Group" transform="translate(14.000000, 14.000000)">
                <path d="M48,59.1666667 C49.1733333,60.34 50.7646667,61 52.4256667,61 L54.4166667,61 C56.9466667,61 59,58.9466667 59,56.4166667 L59,55.5 C59,52.4624339 56.5375661,50 53.5,50 C50.4624339,50 48,47.5375661 48,44.5 L48,43.5833333 C48,41.0533333 50.0533333,39 52.5833333,39 L54.5743333,39 C56.2353333,39 57.8266667,39.66 59,40.8333333 M26,39 L41,39 M33,39 L33,61" id="Shape" stroke-width="5"></path>
                <path d="M74,65.7777778 L74,8.22222222 C74,3.68121428 70.3187857,0 65.7777778,0 L8.22222222,0 C3.68121428,0 0,3.68121428 0,8.22222222 L0,65.7777778 C0,70.3187857 3.68121428,74 8.22222222,74 L65.7777778,74 C70.3187857,74 74,70.3187857 74,65.7777778 Z" id="Path" stroke-width="7"></path>
            </g>
        </g>
    </g>
</svg>