<?xml version="1.0" encoding="UTF-8"?>
<svg width="30px" height="30px" viewBox="0 0 30 30" version="1.1" xmlns="http://www.w3.org/2000/svg" xmlns:xlink="http://www.w3.org/1999/xlink">
    <!-- Generator: Sketch 59.1 (86144) - https://sketch.com -->
    <title>Group 23</title>
    <desc>Created with Sketch.</desc>
    <defs>
        <path d="M15.0009,0.001 L14.99906,0 C23.2861,0 30,6.8888 30,15.3788 C30,22.1676 25.7069,27.9347 19.7065,29.9464 C18.934,30.1012 18.6715,29.6206 18.6715,29.2207 C18.6715,28.72 18.6902,27.0629 18.6902,25.006 C18.6902,23.569 18.2018,22.6223 17.6805,22.1619 C21.0144,21.786 24.5209,20.4836 24.5209,14.5772 C24.5209,12.8951 23.9396,11.5235 22.988,10.447 C23.1343,10.0606 23.6424,8.4949 22.8371,6.3764 C22.8371,6.3764 21.5826,5.966 18.7296,7.9537 C17.5286,7.6135 16.2545,7.4424 14.97937,7.4337 C13.71248,7.438 12.45163,7.6129 11.22914,7.9537 C8.35927,5.966 7.10388,6.3764 7.10388,6.3764 C6.29758,8.4949 6.80574,10.0616 6.97169,10.447 C6.01069,11.5235 5.4294,12.8942 5.4294,14.5772 C5.4294,20.4702 8.93118,21.7918 12.26139,22.1772 C11.83574,22.5569 11.44478,23.2384 11.31352,24.2293 C10.45378,24.6254 8.28146,25.3059 6.94356,22.9529 C6.94356,22.9529 6.15226,21.4765 4.64842,21.3718 C4.64842,21.3718 3.18301,21.3516 4.5406,22.3022 C4.5406,22.3022 5.52691,22.778 6.21039,24.5504 C6.21039,24.5504 7.08982,27.5444 11.26477,26.6179 C11.27039,27.9001 11.27883,28.8661 11.27883,29.2313 C11.27883,29.6427 11.00694,30.1185 10.25408,29.9733 C4.29777,27.9405 0,22.1782 0,15.3798 C0,6.8897 6.71386,0.001 15.0009,0.001 Z" id="path-1"></path>
    </defs>
    <g id="Page-1" stroke="none" stroke-width="1" fill="none" fill-rule="evenodd">
        <g id="dev_resume_am" transform="translate(-85.000000, -206.000000)">
            <g id="Links" transform="translate(11.000000, 119.000000)">
                <g id="Group-23" transform="translate(74.000000, 87.000000)">
                    <mask id="mask-2" fill="white">
                        <use xlink:href="#path-1"></use>
                    </mask>
                    <g id="Clip-22"></g>
                    <polygon id="Fill-21" fill="#FFFFFF" mask="url(#mask-2)" points="-1 -1 31 -1 31 31.1185 -1 31.1185"></polygon>
                </g>
            </g>
        </g>
    </g>
</svg>