<?xml version="1.0" encoding="UTF-8"?>
<svg width="82px" height="82px" viewBox="0 0 82 82" version="1.1" xmlns="http://www.w3.org/2000/svg" xmlns:xlink="http://www.w3.org/1999/xlink">
    <!-- Generator: Sketch 59.1 (86144) - https://sketch.com -->
    <title>devicon-plain:java-wordmark</title>
    <desc>Created with Sketch.</desc>
    <g id="symbols" stroke="none" stroke-width="1" fill="none" fill-rule="evenodd">
        <g id="devicon-plain:java-wordmark" transform="translate(2.000000, 2.000000)">
            <path d="M76,67.7777778 L76,10.2222222 C76,5.68121428 72.3187857,2 67.7777778,2 L10.2222222,2 C5.68121428,2 2,5.68121428 2,10.2222222 L2,67.7777778 C2,72.3187857 5.68121428,76 10.2222222,76 L67.7777778,76 C72.3187857,76 76,72.3187857 76,67.7777778 Z" id="Path" stroke="#7CC273" stroke-width="7" stroke-linecap="round" stroke-linejoin="round"></path>
            <rect id="ViewBox" x="0" y="0" width="80" height="80"></rect>
            <path d="M32.9499647,54.374665 C24.6309418,56.6728082 38.0103262,61.4202718 48.6016049,56.932858 C46.867217,56.2665582 45.6228864,55.4963629 45.6228864,55.4963629 C40.8997146,56.3791635 38.7092399,56.4488419 34.4220241,55.9648258 C30.8834198,55.564175 32.9499647,54.374665 32.9499647,54.374665 Z M47.3333691,49.8909839 C41.0739712,51.0823603 37.4579894,51.0444104 32.8776199,50.5771918 C29.3364992,50.2151129 31.6546782,48.5173239 31.6546782,48.5173239 C22.4933102,51.5246937 36.754043,54.9364472 49.5578145,51.2329154 C48.1977322,50.7594755 47.3333691,49.8909839 47.3333691,49.8909839 L47.3333691,49.8909839 Z M52.2396048,23.9289338 C52.2396048,23.9289338 33.719965,28.5022014 42.5642741,38.5813074 C45.1756068,41.5538381 41.8798294,44.2265027 41.8798294,44.2265027 C41.8798294,44.2265027 48.505984,40.8439893 45.4630988,36.6066711 C42.6208918,32.6567764 40.4417406,30.6952048 52.2396048,23.9289338 L52.2396048,23.9289338 Z M22.8122564,62.7659361 C44.4049774,66.2268377 62.1722313,61.2068817 56.5727437,58.707791 C56.5727437,58.707791 58.1020499,59.9551589 54.8874244,60.9194583 C48.7758615,62.7503828 29.4447019,63.3028331 24.0754595,60.9922473 C22.1466843,60.1617056 25.7658115,59.0095234 26.9038267,58.7675153 C28.0909105,58.5130647 28.7690644,58.5597243 28.7690644,58.5597243 C26.6226256,57.0641271 14.8945899,61.4949273 22.8122564,62.7659361 L22.8122564,62.7659361 Z M49.1507963,45.7071688 C50.1887869,45.006652 51.6231012,44.3982102 51.6231012,44.3982102 C51.6231012,44.3982102 47.53908,45.1205015 43.4695277,45.4583174 C38.488431,45.8714108 33.1449811,45.9529096 30.4625618,45.5982963 C24.1119465,44.7584227 33.9439194,42.448459 33.9439194,42.448459 C33.9439194,42.448459 30.1253721,42.1927642 25.4305091,44.4386485 C19.8775739,47.0945157 39.1646976,48.3045559 49.1507963,45.7071688 L49.1507963,45.7071688 Z M51.5822107,52.1972148 C51.5356584,52.3216405 51.3796453,52.4616194 51.3796453,52.4616194 C64.9339154,48.9378828 59.9503023,40.0408212 53.4694664,42.2929269 C52.9014024,42.4913859 52.6025869,42.9542496 52.6025869,42.9542496 C52.6025869,42.9542496 52.9617946,42.81116 53.7632491,42.6456738 C57.0388959,41.9712864 61.7331298,46.9831547 51.5822107,52.1972148 Z M40.1284561,42.3520291 C38.1285942,37.8814127 31.3483137,33.9713342 40.1316016,27.1111217 C51.0839752,18.56183 45.4637279,13 45.4637279,13 C47.730951,21.8323603 37.4674257,24.50067 33.7627428,30.0015314 C31.2401111,33.7492343 35.0014116,37.7775172 40.1284561,42.3520291 Z M51.9489674,64.5315371 C43.6330899,66.0793932 33.3758554,65.899598 27.2944886,64.9066807 C27.2944886,64.9066807 28.5400773,65.9269717 34.9422776,66.3338438 C44.6830331,66.9497511 59.645825,65.9910509 60,61.4327142 C60,61.4320923 59.3193298,63.1597435 51.9489674,64.5315371 L51.9489674,64.5315371 Z" id="Shape" fill="#7CC273" fill-rule="nonzero"></path>
        </g>
    </g>
</svg>